<?xml version="1.0" encoding="UTF-8" standalone="no" ?>
<!DOCTYPE svg PUBLIC "-//W3C//DTD SVG 1.1//EN" "http://www.w3.org/Graphics/SVG/1.1/DTD/svg11.dtd">
<svg xmlns="http://www.w3.org/2000/svg" xmlns:xlink="http://www.w3.org/1999/xlink" version="1.1" width="241.63196411132807" height="97.87263999999999" xml:space="preserve">
<desc>Created with Fabric.js 1.6.0-rc.1</desc>
<defs></defs>
<g style="stroke: none; stroke-width: 1; stroke-dasharray: none; stroke-linecap: butt; stroke-linejoin: miter; stroke-miterlimit: 10; fill: none; fill-rule: nonzero; opacity: 1;" transform="translate(10 10) scale(0.15 0.15)" >
  <circle cx="256" cy="256" r="256" style="stroke: none; stroke-width: 1; stroke-dasharray: none; stroke-linecap: butt; stroke-linejoin: miter; stroke-miterlimit: 10; fill: #ff7c0a; fill-rule: nonzero; opacity: 1;" transform="  matrix(1 0 0 1 0 0) "/>
  <path d="M 395.02 445.374 H 116.98 v -16.153 c 0 -1.919 0.717 -3.819 2.207 -5.285 c 1.45 -1.457 3.369 -2.207 5.285 -2.207 h 263.069 c 1.896 0 3.822 0.75 5.275 2.207 c 1.48 1.463 2.207 3.366 2.207 5.285 v 16.153 H 395.02 z" style="stroke: none; stroke-width: 1; stroke-dasharray: none; stroke-linecap: butt; stroke-linejoin: miter; stroke-miterlimit: 10; fill: #242D3C; fill-rule: nonzero; opacity: 1;" transform=" matrix(1 0 0 1 0 0) " stroke-linecap="round" />
  <path d="M 410.69 448.453 c -2.051 -2.058 -4.73 -3.079 -7.426 -3.079 H 108.745 c -2.662 0 -5.358 1.021 -7.426 3.079 c -2.035 2.031 -3.055 4.724 -3.055 7.396 v 29.726 h 315.471 v -29.726 C 413.736 453.173 412.728 450.484 410.69 448.453 z" style="stroke: none; stroke-width: 1; stroke-dasharray: none; stroke-linecap: butt; stroke-linejoin: miter; stroke-miterlimit: 10; fill: #3E4959; fill-rule: nonzero; opacity: 1;" transform=" matrix(1 0 0 1 0 0) " stroke-linecap="round" />
  <path d="M 307.894 337.289 c 0 -7.138 -5.833 -12.978 -12.968 -12.978 h -77.827 c -7.132 0 -12.972 5.84 -12.972 12.978 l 0 0 c 0 7.128 5.84 12.965 12.972 12.965 h 77.831 C 302.06 350.254 307.894 344.421 307.894 337.289 L 307.894 337.289 z" style="stroke: none; stroke-width: 1; stroke-dasharray: none; stroke-linecap: butt; stroke-linejoin: miter; stroke-miterlimit: 10; fill: #242D3C; fill-rule: nonzero; opacity: 1;" transform=" matrix(1 0 0 1 0 0) " stroke-linecap="round" />
  <path d="M 288.424 397.946 v -47.692 h -64.836 v 47.692 c 0 13.144 -10.65 23.78 -23.787 23.78 h 23.787 h 64.839 h 23.783 C 299.061 421.726 288.424 411.09 288.424 397.946 z" style="stroke: none; stroke-width: 1; stroke-dasharray: none; stroke-linecap: butt; stroke-linejoin: miter; stroke-miterlimit: 10; fill: #3E4959; fill-rule: nonzero; opacity: 1;" transform=" matrix(1 0 0 1 0 0) " stroke-linecap="round" />
  <rect x="349.51" y="408.35" rx="0" ry="0" width="12.65" height="13.4" style="stroke: none; stroke-width: 1; stroke-dasharray: none; stroke-linecap: butt; stroke-linejoin: miter; stroke-miterlimit: 10; fill: #3E4959; fill-rule: nonzero; opacity: 1;" transform=" matrix(1 0 0 1 0 0) "/>
  <rect x="347" y="396.98" rx="0" ry="0" width="17.72" height="11.34" style="stroke: none; stroke-width: 1; stroke-dasharray: none; stroke-linecap: butt; stroke-linejoin: miter; stroke-miterlimit: 10; fill: #242D3C; fill-rule: nonzero; opacity: 1;" transform=" matrix(1 0 0 1 0 0) "/>
  <rect x="345.75" y="393.81" rx="0" ry="0" width="20.25" height="3.17" style="stroke: none; stroke-width: 1; stroke-dasharray: none; stroke-linecap: butt; stroke-linejoin: miter; stroke-miterlimit: 10; fill: #242D3C; fill-rule: nonzero; opacity: 1;" transform=" matrix(1 0 0 1 0 0) "/>
  <rect x="149.83" y="408.35" rx="0" ry="0" width="12.64" height="13.4" style="stroke: none; stroke-width: 1; stroke-dasharray: none; stroke-linecap: butt; stroke-linejoin: miter; stroke-miterlimit: 10; fill: #3E4959; fill-rule: nonzero; opacity: 1;" transform=" matrix(1 0 0 1 0 0) "/>
  <polygon points="147.29,408.33 165.03,408.33 165,396.99 147.31,396.99 " style="stroke: none; stroke-width: 1; stroke-dasharray: none; stroke-linecap: butt; stroke-linejoin: miter; stroke-miterlimit: 10; fill: #242D3C; fill-rule: nonzero; opacity: 1;" transform="  matrix(1 0 0 1 0 0) "/>
  <rect x="146.04" y="393.81" rx="0" ry="0" width="20.25" height="3.17" style="stroke: none; stroke-width: 1; stroke-dasharray: none; stroke-linecap: butt; stroke-linejoin: miter; stroke-miterlimit: 10; fill: #242D3C; fill-rule: nonzero; opacity: 1;" transform=" matrix(1 0 0 1 0 0) "/>
  <path d="M 347.404 194.821 c 0 50.463 -40.92 91.38 -91.397 91.38 c -50.48 0 -91.384 -40.917 -91.384 -91.38 c 0 -50.483 40.904 -91.4 91.384 -91.4 C 306.483 103.424 347.404 144.338 347.404 194.821 z" style="stroke: none; stroke-width: 1; stroke-dasharray: none; stroke-linecap: butt; stroke-linejoin: miter; stroke-miterlimit: 10; fill: #FFD55C; fill-rule: nonzero; opacity: 1;" transform=" matrix(1 0 0 1 0 0) " stroke-linecap="round" />
  <path d="M 193.298 158.069 c -1.159 0 -2.349 -0.32 -3.386 -1.044 c -2.755 -1.87 -3.468 -5.619 -1.582 -8.38 c 15.297 -22.432 40.587 -35.833 67.68 -35.833 c 3.333 0 6.028 2.692 6.028 6.032 c 0 3.336 -2.695 6.038 -6.028 6.038 c -23.093 0 -44.663 11.419 -57.711 30.558 C 197.123 157.158 195.227 158.069 193.298 158.069 z" style="stroke: none; stroke-width: 1; stroke-dasharray: none; stroke-linecap: butt; stroke-linejoin: miter; stroke-miterlimit: 10; fill: #FFFFFF; fill-rule: nonzero; opacity: 1;" transform=" matrix(1 0 0 1 0 0) " stroke-linecap="round" />
  <path d="M 180.049 200.833 c -3.346 0 -6.045 -2.692 -6.045 -6.022 c 0 -9.14 1.506 -18.069 4.443 -26.518 c 1.12 -3.145 4.565 -4.8 7.697 -3.713 c 3.138 1.11 4.806 4.549 3.696 7.693 c -2.501 7.158 -3.769 14.746 -3.769 22.538 C 186.071 198.137 183.379 200.833 180.049 200.833 z" style="stroke: none; stroke-width: 1; stroke-dasharray: none; stroke-linecap: butt; stroke-linejoin: miter; stroke-miterlimit: 10; fill: #FFFFFF; fill-rule: nonzero; opacity: 1;" transform=" matrix(1 0 0 1 0 0) " stroke-linecap="round" />
  <rect x="228.98" y="282.13" rx="0" ry="0" width="54.06" height="42.19" style="stroke: none; stroke-width: 1; stroke-dasharray: none; stroke-linecap: butt; stroke-linejoin: miter; stroke-miterlimit: 10; fill: #FFB733; fill-rule: nonzero; opacity: 1;" transform=" matrix(1 0 0 1 0 0) "/>
  <path d="M 268.833 324.314 h -5.361 V 222.971 c 0 -1.126 0.714 -2.141 1.78 -2.53 c 10.788 -3.822 18.042 -14.134 18.042 -25.633 c 0 -15.049 -12.245 -27.291 -27.288 -27.291 c -15.046 0 -27.285 12.242 -27.285 27.291 c 0 11.495 7.247 21.811 18.039 25.633 c 1.067 0.373 1.787 1.404 1.787 2.53 v 101.343 h -5.361 v -99.506 c -11.931 -5.044 -19.833 -16.87 -19.833 -29.997 c 0 -18.006 14.646 -32.652 32.652 -32.652 c 17.993 0 32.642 14.646 32.642 32.652 c 0 13.117 -7.891 24.949 -19.816 29.997 V 324.314 z" style="stroke: none; stroke-width: 1; stroke-dasharray: none; stroke-linecap: butt; stroke-linejoin: miter; stroke-miterlimit: 10; fill: #3E4959; fill-rule: nonzero; opacity: 1;" transform=" matrix(1 0 0 1 0 0) " stroke-linecap="round" />
  <rect x="253.83" y="46.24" rx="0" ry="0" width="4.36" height="16.29" style="stroke: none; stroke-width: 1; stroke-dasharray: none; stroke-linecap: butt; stroke-linejoin: miter; stroke-miterlimit: 10; fill: #242D3C; fill-rule: nonzero; opacity: 1;" transform=" matrix(1 0 0 1 0 0) "/>
  <polygon points="222.98,49.95 227.25,49.03 230.63,64.98 226.37,65.88 " style="stroke: none; stroke-width: 1; stroke-dasharray: none; stroke-linecap: butt; stroke-linejoin: miter; stroke-miterlimit: 10; fill: #242D3C; fill-rule: nonzero; opacity: 1;" transform="  matrix(1 0 0 1 0 0) "/>
  <polygon points="193.59,59.98 197.58,58.2 204.22,73.09 200.21,74.86 " style="stroke: none; stroke-width: 1; stroke-dasharray: none; stroke-linecap: butt; stroke-linejoin: miter; stroke-miterlimit: 10; fill: #242D3C; fill-rule: nonzero; opacity: 1;" transform="  matrix(1 0 0 1 0 0) "/>
  <polygon points="166.93,75.89 170.44,73.33 180.02,86.51 176.49,89.08 " style="stroke: none; stroke-width: 1; stroke-dasharray: none; stroke-linecap: butt; stroke-linejoin: miter; stroke-miterlimit: 10; fill: #242D3C; fill-rule: nonzero; opacity: 1;" transform="  matrix(1 0 0 1 0 0) "/>
  <rect x="149.45" y="92.7" rx="0" ry="0" width="4.37" height="16.29" style="stroke: none; stroke-width: 1; stroke-dasharray: none; stroke-linecap: butt; stroke-linejoin: miter; stroke-miterlimit: 10; fill: #242D3C; fill-rule: nonzero; opacity: 1;" transform=" matrix(0.6672 -0.7448 0.7448 0.6672 -24.6549 146.5008) "/>
  <polygon points="126.25,122.42 128.43,118.64 142.54,126.78 140.35,130.59 " style="stroke: none; stroke-width: 1; stroke-dasharray: none; stroke-linecap: butt; stroke-linejoin: miter; stroke-miterlimit: 10; fill: #242D3C; fill-rule: nonzero; opacity: 1;" transform="  matrix(1 0 0 1 0 0) "/>
  <rect x="120.26" y="143.28" rx="0" ry="0" width="4.37" height="16.29" style="stroke: none; stroke-width: 1; stroke-dasharray: none; stroke-linecap: butt; stroke-linejoin: miter; stroke-miterlimit: 10; fill: #242D3C; fill-rule: nonzero; opacity: 1;" transform=" matrix(0.3078 -0.9515 0.9515 0.3078 -59.3167 221.3172) "/>
  <polygon points="108.03,181.47 108.47,177.1 124.66,178.82 124.22,183.16 " style="stroke: none; stroke-width: 1; stroke-dasharray: none; stroke-linecap: butt; stroke-linejoin: miter; stroke-miterlimit: 10; fill: #242D3C; fill-rule: nonzero; opacity: 1;" transform="  matrix(1 0 0 1 0 0) "/>
  <polygon points="108.03,208.17 124.22,206.47 124.66,210.81 108.47,212.53 " style="stroke: none; stroke-width: 1; stroke-dasharray: none; stroke-linecap: butt; stroke-linejoin: miter; stroke-miterlimit: 10; fill: #242D3C; fill-rule: nonzero; opacity: 1;" transform="  matrix(1 0 0 1 0 0) "/>
  <rect x="114.31" y="236.03" rx="0" ry="0" width="16.28" height="4.35" style="stroke: none; stroke-width: 1; stroke-dasharray: none; stroke-linecap: butt; stroke-linejoin: miter; stroke-miterlimit: 10; fill: #242D3C; fill-rule: nonzero; opacity: 1;" transform=" matrix(0.9513 -0.3083 0.3083 0.9513 -67.4728 49.3547) "/>
  <rect x="126.27" y="262.88" rx="0" ry="0" width="16.29" height="4.38" style="stroke: none; stroke-width: 1; stroke-dasharray: none; stroke-linecap: butt; stroke-linejoin: miter; stroke-miterlimit: 10; fill: #242D3C; fill-rule: nonzero; opacity: 1;" transform=" matrix(0.8661 -0.4998 0.4998 0.8661 -114.4923 102.667) "/>
  <rect x="143.51" y="286.57" rx="0" ry="0" width="16.29" height="4.37" style="stroke: none; stroke-width: 1; stroke-dasharray: none; stroke-linecap: butt; stroke-linejoin: miter; stroke-miterlimit: 10; fill: #242D3C; fill-rule: nonzero; opacity: 1;" transform=" matrix(0.7429 -0.6694 0.6694 0.7429 -154.3055 175.755) "/>
  <rect x="165.34" y="306.26" rx="0" ry="0" width="16.28" height="4.35" style="stroke: none; stroke-width: 1; stroke-dasharray: none; stroke-linecap: butt; stroke-linejoin: miter; stroke-miterlimit: 10; fill: #242D3C; fill-rule: nonzero; opacity: 1;" transform=" matrix(0.5874 -0.8093 0.8093 0.5874 -178.0393 267.6622) "/>
  <polygon points="332,303.12 335.53,300.56 345.12,313.74 341.58,316.3 " style="stroke: none; stroke-width: 1; stroke-dasharray: none; stroke-linecap: butt; stroke-linejoin: miter; stroke-miterlimit: 10; fill: #242D3C; fill-rule: nonzero; opacity: 1;" transform="  matrix(1 0 0 1 0 0) "/>
  <rect x="358.18" y="280.65" rx="0" ry="0" width="4.36" height="16.28" style="stroke: none; stroke-width: 1; stroke-dasharray: none; stroke-linecap: butt; stroke-linejoin: miter; stroke-miterlimit: 10; fill: #242D3C; fill-rule: nonzero; opacity: 1;" transform=" matrix(0.6692 -0.7431 0.7431 0.6692 -95.3846 363.3132) "/>
  <rect x="375.47" y="256.9" rx="0" ry="0" width="4.36" height="16.29" style="stroke: none; stroke-width: 1; stroke-dasharray: none; stroke-linecap: butt; stroke-linejoin: miter; stroke-miterlimit: 10; fill: #242D3C; fill-rule: nonzero; opacity: 1;" transform=" matrix(0.4988 -0.8667 0.8667 0.4988 -40.4459 460.1518) "/>
  <polygon points="381.15,237.77 382.49,233.64 397.99,238.65 396.64,242.8 " style="stroke: none; stroke-width: 1; stroke-dasharray: none; stroke-linecap: butt; stroke-linejoin: miter; stroke-miterlimit: 10; fill: #242D3C; fill-rule: nonzero; opacity: 1;" transform="  matrix(1 0 0 1 0 0) "/>
  <polygon points="387.35,210.83 387.8,206.49 404,208.17 403.55,212.53 " style="stroke: none; stroke-width: 1; stroke-dasharray: none; stroke-linecap: butt; stroke-linejoin: miter; stroke-miterlimit: 10; fill: #242D3C; fill-rule: nonzero; opacity: 1;" transform="  matrix(1 0 0 1 0 0) "/>
  <polygon points="387.35,178.82 403.55,177.1 404,181.47 387.81,183.16 " style="stroke: none; stroke-width: 1; stroke-dasharray: none; stroke-linecap: butt; stroke-linejoin: miter; stroke-miterlimit: 10; fill: #242D3C; fill-rule: nonzero; opacity: 1;" transform="  matrix(1 0 0 1 0 0) "/>
  <rect x="381.42" y="149.22" rx="0" ry="0" width="16.29" height="4.37" style="stroke: none; stroke-width: 1; stroke-dasharray: none; stroke-linecap: butt; stroke-linejoin: miter; stroke-miterlimit: 10; fill: #242D3C; fill-rule: nonzero; opacity: 1;" transform=" matrix(0.951 -0.3093 0.3093 0.951 -27.7285 127.9122) "/>
  <polygon points="369.49,126.79 383.59,118.64 385.78,122.42 371.67,130.59 " style="stroke: none; stroke-width: 1; stroke-dasharray: none; stroke-linecap: butt; stroke-linejoin: miter; stroke-miterlimit: 10; fill: #242D3C; fill-rule: nonzero; opacity: 1;" transform="  matrix(1 0 0 1 0 0) "/>
  <polygon points="352.87,104.67 364.97,93.78 367.88,97.03 355.79,107.92 " style="stroke: none; stroke-width: 1; stroke-dasharray: none; stroke-linecap: butt; stroke-linejoin: miter; stroke-miterlimit: 10; fill: #242D3C; fill-rule: nonzero; opacity: 1;" transform="  matrix(1 0 0 1 0 0) "/>
  <rect x="330.44" y="79.01" rx="0" ry="0" width="16.28" height="4.37" style="stroke: none; stroke-width: 1; stroke-dasharray: none; stroke-linecap: butt; stroke-linejoin: miter; stroke-miterlimit: 10; fill: #242D3C; fill-rule: nonzero; opacity: 1;" transform=" matrix(0.5874 -0.8093 0.8093 0.5874 73.9889 307.5106) "/>
  <rect x="305.02" y="64.33" rx="0" ry="0" width="16.27" height="4.37" style="stroke: none; stroke-width: 1; stroke-dasharray: none; stroke-linecap: butt; stroke-linejoin: miter; stroke-miterlimit: 10; fill: #242D3C; fill-rule: nonzero; opacity: 1;" transform=" matrix(0.4058 -0.914 0.914 0.4058 125.2878 325.746) "/>
  <polygon points="281.39,64.98 284.76,49.04 289.05,49.95 285.65,65.88 " style="stroke: none; stroke-width: 1; stroke-dasharray: none; stroke-linecap: butt; stroke-linejoin: miter; stroke-miterlimit: 10; fill: #242D3C; fill-rule: nonzero; opacity: 1;" transform="  matrix(1 0 0 1 0 0) "/>
</g>
  <g transform="translate(164.52 68.07) scale(0.6 0.77)">
   <text font-family="Diogenes" font-size="40" font-weight="bold" style="stroke: none; stroke-width: 1; stroke-dasharray: none; stroke-linecap: butt; stroke-linejoin: miter; stroke-miterlimit: 10; fill: #e07400; fill-rule: nonzero; opacity: 1;" ><tspan x="-112.36" y="8.98" style="stroke: none; stroke-width: 0; stroke-dasharray: none; stroke-linecap: butt; stroke-linejoin: miter; stroke-miterlimit: 4; fill: #e07400; fill-rule: ; opacity: 1;">W</tspan><tspan x="-76.6" y="8.98" style="stroke: none; stroke-width: 0; stroke-dasharray: none; stroke-linecap: butt; stroke-linejoin: miter; stroke-miterlimit: 4; fill: #e07400; fill-rule: ; opacity: 1;">a</tspan><tspan x="-56.4" y="8.98" style="stroke: none; stroke-width: 0; stroke-dasharray: none; stroke-linecap: butt; stroke-linejoin: miter; stroke-miterlimit: 4; fill: #e07400; fill-rule: ; opacity: 1;">n</tspan><tspan x="-36.8" y="8.98" style="stroke: none; stroke-width: 0; stroke-dasharray: none; stroke-linecap: butt; stroke-linejoin: miter; stroke-miterlimit: 4; fill: #e07400; fill-rule: ; opacity: 1;">d</tspan><tspan x="-19.08" y="8.98" style="stroke: none; stroke-width: 0; stroke-dasharray: none; stroke-linecap: butt; stroke-linejoin: miter; stroke-miterlimit: 4; fill: #e07400; fill-rule: ; opacity: 1;">e</tspan><tspan x="-1.08" y="8.98" style="stroke: none; stroke-width: 0; stroke-dasharray: none; stroke-linecap: butt; stroke-linejoin: miter; stroke-miterlimit: 4; fill: #e07400; fill-rule: ; opacity: 1;">r</tspan><tspan x="12.8" y="8.98" style="stroke: none; stroke-width: 0; stroke-dasharray: none; stroke-linecap: butt; stroke-linejoin: miter; stroke-miterlimit: 4; fill: #e07400; fill-rule: ; opacity: 1;"> </tspan><tspan x="24.8" y="8.98" style="stroke: none; stroke-width: 0; stroke-dasharray: none; stroke-linecap: butt; stroke-linejoin: miter; stroke-miterlimit: 4; fill: #e07400; fill-rule: ; opacity: 1;">V</tspan><tspan x="49.56" y="8.98" style="stroke: none; stroke-width: 0; stroke-dasharray: none; stroke-linecap: butt; stroke-linejoin: miter; stroke-miterlimit: 4; fill: #e07400; fill-rule: ; opacity: 1;">e</tspan><tspan x="67.56" y="8.98" style="stroke: none; stroke-width: 0; stroke-dasharray: none; stroke-linecap: butt; stroke-linejoin: miter; stroke-miterlimit: 4; fill: #e07400; fill-rule: ; opacity: 1;">r</tspan><tspan x="81.44" y="8.98" style="stroke: none; stroke-width: 0; stroke-dasharray: none; stroke-linecap: butt; stroke-linejoin: miter; stroke-miterlimit: 4; fill: #e07400; fill-rule: ; opacity: 1;">s</tspan><tspan x="94.36" y="8.98" style="stroke: none; stroke-width: 0; stroke-dasharray: none; stroke-linecap: butt; stroke-linejoin: miter; stroke-miterlimit: 4; fill: #e07400; fill-rule: ; opacity: 1;">e</tspan></text>
 </g>
</svg>